<?xml version="1.0" encoding="utf-8"?>
<svg xmlns="http://www.w3.org/2000/svg" width="720pt" height="720pt" viewBox="0 0 720 720" xmlns:bx="https://boxy-svg.com"><defs><bx:export><bx:file format="svg" href="#object-0" units="pt"/><bx:file format="svg" href="#object-1" path="Untitled 2.svg" units="pt"/><bx:file format="svg" href="#object-2" path="Untitled 3.svg" units="pt"/><bx:file format="svg" href="#object-3" path="Untitled 4.svg" units="pt"/><bx:file format="svg" href="#object-4" path="Untitled 5.svg" units="pt"/><bx:file format="svg" href="#object-5" path="Untitled 6.svg" units="pt"/><bx:file format="svg" href="#object-6" path="Untitled 7.svg" units="pt"/><bx:file format="svg" path="Untitled 8.svg" units="pt"/></bx:export></defs><path style="fill: none; stroke: rgb(0, 0, 0); stroke-linecap: square; stroke-linejoin: bevel; stroke-width: 9.6px; transform-box: fill-box; transform-origin: 50% 50%;" d="M 322.722 328.043 C 311.159 339.606 305.294 335.055 291.377 340.286 C 281.333 344.061 269.995 350.514 259.374 345.281 C 256.616 343.922 233.801 340.861 237.469 332.896 C 240.212 326.938 251.289 323.118 256.474 320.518 C 268.93 314.27 276.944 302.292 289.417 296.036 C 305.574 287.933 314.978 266.637 331.009 258.637 C 348.076 250.119 365.073 240.586 381.865 232.233 C 401.992 222.222 435.538 236.175 452.737 244.322 C 468.5 251.789 492.917 262.626 502.014 280.725 C 508.366 293.361 506.059 305.431 509.475 319.234 C 516.34 346.983 515.079 372.45 515.079 401.801 C 515.079 418.885 515.257 432.866 511.333 448.124 C 508.388 459.573 513.064 472.737 507.548 483.666 C 501.463 495.722 489.845 499.431 483.755 487.365 C 481.635 483.164 483.755 472.26 483.755 467.447 C 483.755 449.538 488.771 420.625 481.081 405.238 C 479.922 402.92 479.742 382.182 476.541 382.182 C 467.3 382.182 463.255 408.121 461.795 414.021 C 454.544 443.328 447.334 472.116 439.859 501.177 C 438.593 506.101 427.961 526.46 421.474 526.434 C 413.611 526.401 410.006 510.743 408.735 505.605 C 402.788 481.57 397.546 449.923 403.948 424.898 C 404.456 422.911 406.805 394.513 406.805 394.513 C 406.805 394.513 406.514 399.751 405.801 402.253 C 403.386 410.732 399.37 418.763 397.155 427.42 C 390.549 453.243 385.207 495.285 357.497 508.936 C 354.142 510.589 345.77 498.611 344.715 496.325 C 342.982 492.567 344.715 483.221 344.715 479.026 C 344.715 463.014 342.837 445.229 346.645 429.838 C 346.918 428.734 353.489 401.441 352.255 401.453 C 348.85 401.486 343.525 418.454 342.115 421.36 C 334.785 436.468 336.46 473.874 319.311 482.438 C 314.967 484.607 310.658 485.069 306.553 486.963 C 303.001 488.601 300.315 490.769 296.329 488.784 C 281.263 481.281 292.5 451.465 297.109 442.254 C 301.889 432.701 297.951 419.699 302.577 409.763 C 312.792 387.822 316.369 363.923 327.584 342.044 C 330.2 336.942 325.329 327.831 322.057 324.559 L 322.722 328.043 Z" transform="matrix(-1, 0, 0, -1, 0.000032, 0.000037)" id="object-0"/><path style="fill: none; stroke: rgb(0, 0, 0); stroke-linecap: square; stroke-linejoin: bevel; stroke-width: 9.6px;" d="M 198.03 196.042 C 187.609 205.896 173.503 208.449 161.925 216.921 C 147.146 227.736 140.788 247.127 128.93 258.986" id="object-1"/><path style="fill: none; stroke: rgb(0, 0, 0); stroke-linecap: square; stroke-linejoin: bevel; stroke-width: 9.6px;" d="M 209.33 212.941 C 186.305 212.941 177.283 247.032 164.87 259.445" id="object-2"/><path style="fill: none; stroke: rgb(0, 0, 0); stroke-linecap: square; stroke-linejoin: bevel; stroke-width: 9.6px;" d="M 216.007 244.3 C 210.748 249.558 198.554 258.118 198.554 265.654" id="object-3"/><path style="fill: none; stroke: rgb(0, 0, 0); stroke-linecap: square; stroke-linejoin: bevel; stroke-width: 9.6px;" d="M 488.506 493.641 C 479.821 508.759 472.114 517.996 459.469 529.664" id="object-4"/><path style="fill: none; stroke: rgb(0, 0, 0); stroke-linecap: square; stroke-linejoin: bevel; stroke-width: 9.6px;" d="M 515.338 493.88 C 510.743 503.933 515.657 518.986 512.325 530.071 C 507.4 546.46 486.96 564.979 469.562 564.979" id="object-5"/><path style="fill: none; stroke: rgb(0, 0, 0); stroke-linecap: square; stroke-linejoin: bevel; stroke-width: 9.6px;" d="M 541.783 488.029 C 541.783 496.185 545.454 504.953 546.804 513.004 C 551.366 540.211 539.179 559.703 523.239 578.182" id="object-6"/></svg>